<svg xmlns="http://www.w3.org/2000/svg">
<symbol viewBox="0 -192 512 512" id="dots">
    <path d="m320 64c0 35.347656-28.652344 64-64 64s-64-28.652344-64-64 28.652344-64 64-64 64 28.652344 64 64zm0 0"/>
    <path d="m128 64c0 35.347656-28.652344 64-64 64s-64-28.652344-64-64 28.652344-64 64-64 64 28.652344 64 64zm0 0"/>
    <path d="m512 64c0 35.347656-28.652344 64-64 64s-64-28.652344-64-64 28.652344-64 64-64 64 28.652344 64 64zm0 0"/>
</symbol>
    <symbol viewBox="0 0 123.959 123.958" id="caret">
        <g>
        <path d="M117.979,28.017h-112c-5.3,0-8,6.4-4.2,10.2l56,56c2.3,2.3,6.1,2.3,8.401,0l56-56
		C125.979,34.417,123.279,28.017,117.979,28.017z"/>
        </g>
    </symbol>
    <symbol viewBox="0 0 469.333 469.333" id="archive">
        <g>
            <path d="M467.784,154.79l0.143-0.082L382.594,5.375C380.698,2.052,377.156,0,373.333,0H96c-3.823,0-7.365,2.052-9.26,5.375
				L1.406,154.708l0.143,0.082C0.652,156.353,0,158.066,0,160v266.667c0,23.531,19.135,42.667,42.667,42.667h384
				c23.531,0,42.667-19.135,42.667-42.667V160C469.333,158.066,468.681,156.353,467.784,154.79z M102.187,21.333h264.958l73.142,128
				H29.046L102.187,21.333z M448,426.667c0,11.76-9.573,21.333-21.333,21.333h-384c-11.76,0-21.333-9.573-21.333-21.333v-256H448
				V426.667z"/>
            <path d="M149.333,298.667H320c23.531,0,42.667-19.135,42.667-42.667S343.531,213.333,320,213.333H149.333
				c-23.531,0-42.667,19.135-42.667,42.667S125.802,298.667,149.333,298.667z M149.333,234.667H320
				c11.76,0,21.333,9.573,21.333,21.333c0,11.76-9.573,21.333-21.333,21.333H149.333C137.573,277.333,128,267.76,128,256
				C128,244.24,137.573,234.667,149.333,234.667z"/>
        </g>
    </symbol>
</svg>
